<?xml version="1.0" standalone="no"?>
<!DOCTYPE svg PUBLIC "-//W3C//DTD SVG 20010904//EN"
 "http://www.w3.org/TR/2001/REC-SVG-20010904/DTD/svg10.dtd">
<svg version="1.0" xmlns="http://www.w3.org/2000/svg"
 width="1280.000000pt" height="1280.000000pt" viewBox="0 0 1280.000000 1280.000000"
 preserveAspectRatio="xMidYMid meet">
<metadata>
Created by potrace 1.15, written by Peter Selinger 2001-2017
</metadata>
<g transform="translate(0.000000,1280.000000) scale(0.100000,-0.100000)"
fill="#d42487" stroke="none">
<path d="M6095 12794 c-1453 -77 -2787 -612 -3885 -1558 -240 -207 -590 -569
-792 -821 -725 -901 -1190 -1969 -1352 -3105 -49 -340 -60 -508 -60 -910 0
-402 11 -569 60 -910 172 -1212 685 -2335 1498 -3280 124 -144 414 -438 573
-581 564 -506 1234 -917 1943 -1194 555 -217 1129 -350 1765 -412 252 -24 858
-24 1110 0 1085 105 2058 441 2935 1014 378 247 662 477 994 803 328 322 588
634 833 1000 604 903 953 1892 1060 3005 24 252 24 858 0 1110 -133 1383 -645
2591 -1541 3635 -116 135 -511 530 -646 646 -1040 893 -2265 1413 -3625 1539
-162 15 -716 27 -870 19z m301 -721 c-4 -115 -11 -372 -16 -573 -25 -928 -36
-1333 -70 -2615 l-21 -740 26 -265 c62 -650 86 -884 90 -890 2 -3 -27 -11 -66
-16 -38 -5 -69 -6 -69 -2 0 4 -43 261 -96 570 l-95 563 -84 275 c-46 151 -133
437 -193 635 -61 198 -151 494 -201 658 -50 163 -132 431 -182 595 -50 163
-140 459 -201 657 -302 989 -348 1142 -348 1152 0 5 26 16 58 23 31 7 62 14
68 17 6 2 16 -15 23 -39 46 -154 186 -274 371 -319 82 -19 250 -15 343 10 247
65 435 252 463 460 l7 51 99 0 100 0 -6 -207z m138 192 c-10 -25 15 -145 41
-194 59 -116 166 -209 305 -264 248 -97 549 -46 721 123 62 61 119 149 119
185 0 8 7 15 16 15 16 0 177 -39 182 -44 1 -2 -18 -70 -42 -152 -25 -82 -120
-401 -211 -709 -91 -308 -256 -864 -367 -1235 -110 -371 -281 -947 -379 -1280
l-180 -605 -94 -565 c-52 -311 -91 -568 -87 -572 5 -5 99 238 211 538 l203
546 483 2012 483 2011 30 -2 c54 -5 85 -21 77 -41 -4 -9 -10 -56 -13 -103 -3
-72 0 -99 18 -153 121 -366 655 -542 981 -324 52 35 121 108 131 140 2 6 34
-5 75 -26 l72 -36 -1070 -1781 -1070 -1781 -180 -396 c-100 -218 -208 -455
-240 -526 -54 -118 -66 -157 -38 -129 5 5 157 218 338 472 l327 462 975 1834
974 1834 55 -31 c30 -17 57 -33 59 -34 2 -2 -8 -30 -22 -61 -106 -236 44 -556
331 -706 213 -111 463 -108 616 9 l46 35 60 -52 c33 -29 59 -55 58 -59 -2 -3
-674 -658 -1494 -1455 l-1491 -1450 -361 -438 c-387 -469 -377 -456 -369 -464
3 -2 209 165 459 371 l453 377 1410 1524 1410 1523 72 -71 73 -71 -39 -41
c-76 -80 -111 -173 -111 -297 0 -93 16 -159 60 -253 91 -195 243 -331 438
-392 73 -22 95 -25 185 -21 85 4 111 9 155 31 l53 26 34 -54 c19 -30 35 -58
35 -62 0 -4 -821 -460 -1823 -1012 l-1822 -1005 -477 -339 c-263 -187 -475
-343 -473 -348 3 -4 36 6 73 23 72 32 747 342 897 411 50 23 888 538 1863
1144 976 607 1775 1103 1777 1103 5 0 97 -161 93 -164 -97 -60 -155 -130 -198
-241 -32 -80 -35 -277 -6 -370 23 -76 78 -186 122 -247 120 -163 327 -270 491
-254 l62 6 24 -77 c14 -43 22 -81 18 -84 -3 -4 -87 -26 -186 -49 -99 -23 -234
-55 -300 -70 -289 -70 -3488 -831 -3529 -840 -26 -6 -106 -32 -179 -59 -450
-167 -940 -352 -954 -360 -14 -7 -21 0 -39 45 -73 180 -233 311 -429 350 -44
9 -81 17 -83 19 -1 1 22 263 52 581 l55 580 -19 709 c-11 391 -28 1068 -40
1505 -11 437 -27 1040 -35 1340 -8 300 -15 553 -15 563 0 14 10 17 60 17 48 0
58 -3 54 -15z m-1486 -997 c111 -447 337 -1355 502 -2018 l299 -1205 196 -525
c108 -288 201 -532 205 -541 7 -13 -3 -20 -54 -40 l-63 -25 -159 345 c-357
782 -214 533 -1433 2481 -601 960 -1093 1749 -1094 1754 -2 8 122 82 126 75
102 -170 214 -238 408 -247 136 -6 229 14 347 73 242 122 384 338 369 561 l-6
81 72 21 c40 11 74 21 77 21 3 1 96 -365 208 -811z m-614 -1599 l1010 -1821
336 -471 337 -472 -54 -37 -54 -38 -23 27 c-13 16 -179 216 -368 445 l-346
417 -1463 1372 c-805 754 -1491 1398 -1524 1430 l-60 59 57 57 57 56 40 -36
c197 -178 529 -132 766 107 87 88 148 189 181 301 24 81 23 203 -1 280 -11 33
-19 63 -20 68 0 6 103 75 115 76 3 0 459 -819 1014 -1820z m-779 -610 l1440
-1500 442 -365 c243 -201 445 -369 448 -374 6 -9 -63 -100 -75 -100 -4 0 -215
148 -471 330 l-464 329 -1845 982 c-1015 540 -1849 985 -1853 989 -9 8 91 180
105 180 5 0 32 -12 61 -27 44 -23 68 -28 152 -31 112 -4 182 13 285 70 86 49
217 188 268 285 107 205 111 449 8 601 l-33 50 41 41 c22 23 43 41 46 41 3 0
653 -675 1445 -1501z m-592 -807 l1792 -1078 519 -237 c285 -130 520 -238 523
-240 4 -5 -46 -117 -53 -117 -5 0 -848 312 -989 365 -38 15 -214 61 -390 101
-176 41 -639 149 -1030 239 -390 90 -1090 252 -1555 360 -465 107 -927 214
-1028 237 -100 23 -182 46 -182 51 0 5 7 32 15 60 l15 52 112 0 c135 0 186 17
290 95 80 61 147 146 199 255 48 99 69 198 69 318 0 165 -52 299 -155 400
l-53 52 45 83 c24 45 49 82 55 82 5 0 816 -485 1801 -1078z m9085 -383 c7 -26
14 -53 17 -62 5 -11 -6 -19 -41 -31 -199 -67 -314 -259 -314 -521 0 -194 61
-351 188 -486 82 -88 173 -141 271 -159 30 -6 56 -11 57 -13 5 -4 7 -167 3
-172 -2 -2 -153 0 -334 5 -476 14 -888 25 -2461 66 l-1402 37 -543 -52 c-299
-28 -558 -54 -575 -57 l-32 -4 -11 62 c-6 34 -9 64 -6 66 4 4 243 46 820 142
333 56 234 29 1495 400 371 109 1107 325 1635 480 528 155 1016 299 1085 320
69 20 128 35 131 31 4 -3 11 -27 17 -52z m-8343 -863 l920 -263 555 -93 c305
-51 556 -94 558 -95 4 -4 -17 -117 -23 -123 -2 -3 -259 19 -569 48 l-564 53
-969 -27 c-532 -15 -1116 -31 -1298 -36 -582 -17 -1767 -49 -1860 -51 l-90 -2
0 63 0 63 53 4 c108 8 191 52 280 148 183 195 226 521 102 772 -52 104 -129
189 -212 233 -35 18 -64 34 -66 36 -3 2 18 98 34 155 4 14 174 -32 1117 -303
611 -175 1526 -437 2032 -582z m2776 -78 c92 -34 151 -71 214 -133 170 -170
211 -421 105 -641 -165 -343 -624 -419 -894 -147 -115 115 -176 280 -163 438
19 217 157 400 360 477 81 31 125 37 222 33 63 -2 110 -11 156 -27z m-5451
-548 c256 -6 643 -15 860 -20 993 -24 2008 -49 2405 -58 l290 -7 485 47 c267
26 522 50 566 53 l82 7 7 -62 c4 -33 5 -63 3 -65 -2 -2 -138 -27 -303 -55
-867 -147 -798 -133 -1125 -231 -168 -49 -363 -107 -435 -129 -71 -21 -375
-111 -675 -200 -300 -89 -588 -175 -640 -190 -52 -15 -279 -83 -505 -150 -225
-67 -453 -135 -505 -150 -194 -57 -818 -242 -894 -266 -43 -13 -80 -23 -81
-22 -5 8 -37 139 -34 141 2 2 22 9 44 16 112 36 214 142 264 271 142 366 -67
820 -410 892 l-56 11 -7 84 c-3 47 -4 88 -1 93 3 4 49 6 103 4 53 -2 306 -9
562 -14z m6510 -39 l495 -46 480 12 c264 7 827 21 1250 32 2064 54 2466 63
2471 58 3 -2 2 -32 -2 -66 -6 -60 -7 -61 -38 -61 -17 0 -54 -6 -82 -14 -137
-36 -249 -135 -318 -280 -60 -125 -71 -177 -70 -331 1 -113 4 -141 28 -212 31
-96 108 -217 170 -268 23 -19 68 -46 99 -60 31 -15 57 -32 57 -38 -1 -7 -9
-46 -19 -87 -15 -63 -21 -74 -37 -72 -11 2 -242 69 -514 149 -272 79 -585 171
-695 203 -110 32 -292 86 -405 119 -113 33 -297 87 -410 120 -113 33 -299 87
-415 121 -115 34 -300 88 -410 120 -110 32 -292 86 -405 119 -113 33 -299 87
-415 121 -115 33 -239 70 -274 81 -36 11 -321 62 -635 115 -314 52 -572 97
-574 99 -2 2 -1 31 3 65 l7 62 82 -7 c44 -4 304 -28 576 -54z m-1775 -155 l24
-58 -72 -33 c-40 -18 -273 -125 -519 -238 l-447 -205 -1786 -1092 c-982 -600
-1791 -1093 -1798 -1095 -7 -3 -27 23 -49 64 l-38 70 34 20 c119 74 196 234
196 407 0 367 -312 704 -631 682 l-66 -5 -19 71 c-10 39 -19 75 -19 81 0 5 16
13 35 17 19 4 166 39 325 78 160 38 421 102 580 140 160 38 421 101 580 140
160 39 421 102 580 140 160 38 421 101 580 140 160 39 421 101 580 140 907
218 807 189 1375 403 283 107 519 194 523 193 5 -1 19 -28 32 -60z m1205 28
c52 -20 142 -53 200 -74 58 -21 256 -94 440 -163 369 -137 246 -104 1400 -377
212 -50 516 -122 675 -160 808 -192 1773 -420 2122 -503 154 -36 223 -56 223
-65 0 -8 -7 -38 -16 -67 -15 -53 -16 -54 -42 -44 -37 14 -158 14 -212 -1 -182
-49 -341 -220 -412 -444 -28 -88 -35 -270 -14 -360 24 -101 78 -196 148 -261
l59 -55 -37 -70 c-21 -39 -41 -70 -45 -70 -4 0 -814 484 -1801 1076 l-1793
1077 -415 189 c-228 104 -465 212 -527 240 l-111 50 18 41 c9 23 20 50 23 60
8 22 7 23 117 -19z m-1132 -158 l40 -55 -446 -371 -447 -371 -1435 -1513
-1435 -1513 -57 55 -58 56 33 36 c52 54 73 90 97 160 30 89 25 243 -12 342
-76 203 -256 381 -451 444 -110 35 -235 37 -322 5 -33 -12 -67 -24 -75 -27
-10 -3 -29 18 -60 67 -24 40 -40 74 -34 76 5 2 839 453 1853 1002 l1843 998
462 330 c253 182 461 331 462 332 1 0 19 -23 42 -53z m1440 -277 l467 -332
1845 -979 c1015 -539 1848 -983 1852 -987 4 -3 -9 -33 -28 -67 l-34 -61 -59
30 c-77 38 -187 47 -281 23 -294 -74 -525 -394 -507 -701 6 -107 26 -169 79
-249 l39 -60 -150 -149 -149 -150 -43 37 c-217 186 -585 113 -811 -161 -55
-66 -113 -176 -133 -253 -21 -79 -19 -222 5 -290 10 -30 18 -55 17 -56 -10 -8
-273 -154 -278 -154 -4 0 -12 13 -19 30 -18 44 -112 127 -181 160 -224 105
-539 34 -739 -169 -124 -125 -188 -276 -177 -413 l6 -67 -52 -15 c-90 -25
-251 -66 -263 -66 -6 0 -15 15 -18 34 -9 48 -75 146 -127 188 -104 84 -234
128 -386 128 -126 0 -221 -22 -331 -76 -170 -83 -290 -225 -322 -379 l-11 -55
-85 0 -84 0 0 73 c0 39 4 225 10 412 16 574 60 2215 80 3015 5 217 12 451 15
520 6 124 -4 249 -85 1064 -11 109 -20 202 -20 206 0 8 121 33 127 26 2 -2 47
-255 99 -562 92 -539 98 -568 171 -814 367 -1244 1095 -3699 1101 -3714 5 -11
11 -16 14 -10 3 5 -27 144 -67 309 -40 165 -165 687 -278 1160 -114 473 -261
1087 -327 1365 -67 278 -159 663 -205 855 l-83 350 -195 520 c-107 286 -198
527 -201 535 -5 11 9 22 54 42 33 14 62 22 65 17 4 -5 113 -242 244 -526 l238
-518 880 -1435 c484 -789 969 -1582 1079 -1762 179 -295 214 -347 214 -320 0
5 -64 127 -143 273 -79 145 -523 964 -987 1819 l-843 1555 -334 469 c-281 394
-332 471 -318 478 9 6 32 23 51 40 21 18 39 27 44 22 5 -5 170 -204 367 -442
l359 -433 1524 -1429 c838 -786 1527 -1427 1532 -1424 5 3 -94 112 -220 242
-126 130 -777 809 -1447 1507 l-1219 1270 -436 359 c-239 197 -439 362 -443
366 -8 7 58 110 69 110 3 0 215 -149 472 -331z m-1331 165 c27 -21 47 -41 46
-45 -2 -5 -148 -213 -324 -461 l-322 -453 -760 -1410 c-1013 -1881 -1228
-2280 -1230 -2282 -2 -1 -133 73 -144 82 -2 1 12 28 30 61 31 57 32 62 32 179
-1 107 -4 127 -27 182 -65 154 -191 283 -355 366 -202 103 -469 88 -608 -34
l-35 -31 -60 58 c-33 32 -59 61 -58 65 2 4 688 657 1525 1451 l1521 1443 357
433 c196 237 358 432 360 432 3 0 26 -16 52 -36z m138 -78 c28 -11 52 -21 54
-22 3 -3 -70 -203 -304 -829 -78 -210 -95 -270 -196 -690 -221 -921 -690
-2879 -774 -3230 -47 -198 -87 -365 -90 -372 -3 -8 -19 -7 -61 6 l-57 16 -1
120 c-1 107 -4 126 -27 175 -78 166 -228 288 -429 352 -100 31 -305 33 -390 4
-97 -33 -153 -67 -219 -133 l-64 -64 -74 39 c-41 21 -74 43 -73 48 0 5 491
815 1089 1799 l1088 1790 223 490 c250 551 239 527 248 523 4 -2 30 -12 57
-22z m208 -75 c-2 -14 -26 -271 -54 -571 l-50 -545 10 -375 c6 -206 15 -549
21 -762 5 -214 15 -562 20 -775 6 -214 15 -557 20 -763 5 -206 14 -557 20
-780 5 -223 12 -471 16 -552 l5 -148 -100 0 -101 0 -6 28 c-46 210 -205 369
-439 442 -96 29 -256 37 -353 16 -166 -35 -309 -142 -362 -270 -13 -31 -28
-56 -34 -56 -27 1 -111 28 -110 36 2 9 155 530 425 1444 83 278 177 595 209
705 32 110 126 427 209 705 82 278 192 651 245 830 l96 325 90 545 c50 300 92
550 94 556 3 7 23 8 68 1 61 -9 64 -11 61 -36z"/>
<path d="M6349 6653 c-15 -2 -51 -19 -80 -36 -88 -53 -139 -158 -123 -257 21
-133 162 -235 294 -214 136 22 241 171 212 302 -32 139 -165 229 -303 205z"/>
</g>
</svg>
